<?xml version="1.0" encoding="UTF-8"?>
<svg id="Layer_10" data-name="Layer 10" xmlns="http://www.w3.org/2000/svg" width="2000" height="1038.11" xmlns:xlink="http://www.w3.org/1999/xlink" viewBox="0 0 2000 1038.11">
  <defs>
    <style>
      .cls-1 {
        fill: url(#linear-gradient);
      }

      .cls-1, .cls-2, .cls-3 {
        stroke-width: 0px;
      }

      .cls-2 {
        fill: #7876b7;
      }

      .cls-3 {
        fill: #5fb4e1;
      }
    </style>
    <linearGradient id="linear-gradient" x1="156.06" y1="382.88" x2="1787.05" y2="382.88" gradientUnits="userSpaceOnUse">
      <stop offset=".59" stop-color="#61b3df"/>
      <stop offset=".63" stop-color="#7975b5"/>
    </linearGradient>
  </defs>
  <g>
    <path class="cls-1" d="M1772.91,676.98c-7.41,8.02-13.99,13.78-19.68,17.12-5.73,3.4-12.66,5.43-20.73,6.06-12.84,0-22.74-5.36-29.85-16.15-7.05-10.75-13.27-29.64-18.69-56.6l-23.21-104.03c-8.77-41.78-27.94-73.1-57.61-93.98-29.66-20.9-74.75-33.99-135.41-39.43,80.85-9.42,138.8-32.34,173.83-68.71,35.01-36.39,52.56-78.49,52.56-126.34,0-56.57-23.42-100.02-70.24-130.37-46.85-30.27-116.74-45.45-209.7-45.45-17.53,0-33.01.36-46.49,1.03l-112.18,1.01c-61.97,0-236.52-.86-293.14-2.56-4.37-.19-8.6-.29-13.05-.48v20.2c28.99,1.35,50.69,8.61,65.19,21.76,14.43,13.11,21.72,34.22,21.72,63.16s-7.71,66.68-23.23,117.2l-95.99,305.16-138.46-422.36c-6.73-19.55-10.1-35.42-10.1-47.52,0-14.14,5.42-23.75,16.17-28.79,10.78-5.07,28.29-7.92,52.57-8.61v-20.2c-31.01,2.03-79.55,3.04-145.55,3.04-58.59,0-106.78-1.01-144.49-3.04v20.2c12.11,1.35,22.73,5.91,31.82,13.64,9.1,7.75,17.02,21.41,23.75,40.95l51.53,156.63-102.08,301.12L404.66,123.2c-6.05-19.55-9.1-34.72-9.1-45.51,0-22.9,11.77-36.01,35.36-39.41v-20.2c-26.26,2.03-67.67,3.04-124.28,3.04-59.98,0-110.15-1.01-150.58-3.04v20.2c11.49.68,22.92,6.08,34.36,16.13,11.44,10.13,21.22,26.3,29.3,48.55l226.35,632.54c7.4-.63,19.2-.97,35.36-.97s27.96.34,35.39.97l149.56-450.64,148.56,450.64c7.39-.63,19.16-.97,35.37-.97s27.91.34,35.36.97l177.84-576.94c10.76-35.04,24.07-62.13,39.91-81.36,7.22-8.78,14.56-16.19,22.01-22.36,7.84-5.87,15.39-8.78,20.79-9.05,1.82-.09,3.4.12,4.66.63,10.44,4.03,17.51,11.76,21.25,23.24,3.72,11.44,5.53,29.97,5.53,55.56v268.79h226.4c28.92,0,49.68,11.63,62.13,34.85,12.43,23.24,23.08,59.47,31.81,108.65l18.19,100.99c6.76,39.79,21.38,67.93,44.01,84.4,22.54,16.51,53.34,24.78,92.44,24.78,29.63,0,54.9-4.54,75.79-13.66,20.84-9.12,40.41-24.06,58.58-44.94l-14.14-12.1ZM1381.84,373.79h-43.46V125.21c0-24.28,1.69-42.45,5.02-54.59,3.41-12.14,9.29-20.52,17.72-25.25,8.41-4.73,21.72-7.09,39.89-7.09,44.48,0,76.5,14.16,96.05,42.43,19.51,28.33,29.3,70.08,29.3,125.33s-10.32,94.49-30.84,123.79c-20.55,29.32-58.44,43.95-113.69,43.95Z"/>
    <path class="cls-2" d="M1384.95,459.6c-39.81-39.79-104.26-39.79-144.05,0-39.8-39.79-104.26-39.79-144.04,0-39.73,39.81-39.77,104.26,0,144.07l144.1,144.01,143.99-144.01c22.25-22.27,32.06-52.29,29.41-81.36-2.1-22.9-11.9-45.17-29.41-62.7Z"/>
  </g>
  <g>
    <path class="cls-3" d="M246.84,879.48v4.01c-3.35,1.35-6.61,3.93-9.74,7.75-3.15,3.83-5.8,9.21-7.93,16.15l-35.36,114.7c-1.47-.14-3.8-.2-7.01-.2s-5.56.06-7.04.2l-29.51-89.58-29.74,89.58c-1.46-.14-3.82-.2-7.03-.2s-5.55.06-7.02.2l-44.99-125.74c-1.61-4.4-3.55-7.63-5.82-9.65-2.29-1.97-4.55-3.06-6.84-3.22v-4.01c8.03.39,18.01.6,29.93.6,11.25,0,19.49-.2,24.7-.6v4.01c-4.69.68-7.02,3.3-7.02,7.87,0,2.14.6,5.14,1.82,9.02l29.31,84.97,20.28-59.86-10.24-31.14c-1.33-3.89-2.92-6.58-4.71-8.13-1.82-1.53-3.93-2.44-6.33-2.73v-4.01c7.5.39,17.06.6,28.72.6,13.11,0,22.76-.2,28.92-.6v4.01c-4.82.16-8.3.72-10.44,1.73-2.15.99-3.22,2.89-3.22,5.72,0,2.42.68,5.56,2.02,9.43l27.52,83.95,19.08-60.63c3.07-10.06,4.6-17.83,4.6-23.32s-1.43-9.94-4.3-12.55c-2.88-2.59-7.2-4.04-12.94-4.33v-4.01c9.09.39,17.39.6,24.9.6,6.28,0,11.44-.2,15.45-.6Z"/>
    <path class="cls-3" d="M377.36,1021.69c-9.11-.41-24.43-.61-46-.61-29.19,0-51.01.2-65.47.61v-4.02c4.41-.26,7.66-.8,9.73-1.61,2.09-.79,3.5-2.34,4.24-4.63.74-2.27,1.09-5.93,1.09-11.02v-99.62c0-5.09-.35-8.78-1.09-11.06-.74-2.25-2.15-3.8-4.24-4.59-2.07-.83-5.31-1.35-9.73-1.64v-4.01c14.46.39,36.28.6,65.47.6,19.69,0,33.68-.2,41.98-.6-.94,11.12-1.41,21.02-1.41,29.72,0,5.91.21,10.44.59,13.65h-4.61c-2.01-14.32-5.63-24.37-10.85-30.12-5.21-5.76-12.58-8.63-22.08-8.63h-8.24c-4.15,0-7.17.33-9.03,1.02-1.88.65-3.16,1.96-3.81,3.9-.67,1.95-1,5.07-1,9.34v49.82h6.42c7.1,0,12.48-2.62,16.18-7.84,3.66-5.21,6.24-11.44,7.72-18.69h4.62c-.4,5.63-.6,11.93-.6,18.89v9.65c0,6.8.4,16.33,1.2,28.52h-4.62c-2.81-17.68-10.98-26.52-24.51-26.52h-6.42v50.61c0,4.3.33,7.4,1,9.34.66,1.95,1.93,3.24,3.81,3.91,1.86.68,4.88,1.02,9.03,1.02h9.84c9.52,0,17.18-3.26,22.99-9.74,5.84-6.49,9.95-17.51,12.36-33.04h4.61c-.4,4.42-.6,10.03-.6,16.86,0,12.33.46,22.5,1.42,30.54Z"/>
    <path class="cls-3" d="M517.57,897.26c12.97,11.85,19.47,29.07,19.47,51.73,0,14.58-3.17,27.35-9.54,38.26-6.37,10.92-15.53,19.36-27.51,25.4-11.98,6.04-26.29,9.04-42.88,9.04l-12.45-.22c-7.77-.25-13.4-.39-16.88-.39-13.79,0-24.1.2-30.93.61v-4.02c4.42-.26,7.66-.8,9.74-1.61,2.07-.79,3.49-2.34,4.23-4.63.73-2.27,1.1-5.93,1.1-11.02v-99.62c0-5.09-.37-8.78-1.1-11.06-.74-2.25-2.16-3.8-4.23-4.59-2.08-.83-5.32-1.35-9.74-1.64v-4.01c5.64.39,13.73.6,24.3.6h6.23l8.03-.2c10.98-.25,18.81-.39,23.51-.39,26.11,0,45.66,5.94,58.65,17.78ZM449.37,884.51c-2.08.93-3.52,2.61-4.32,5.02-.8,2.43-1.19,6.03-1.19,10.85v100.43c0,4.82.39,8.43,1.19,10.86.81,2.4,2.24,4.09,4.32,5.02,2.08.92,5.24,1.41,9.54,1.41,16.2,0,27.72-5.68,34.56-16.99,6.82-11.31,10.24-28.42,10.24-51.32s-3.52-39.73-10.55-50.51c-7.02-10.77-18.52-16.18-34.45-16.18-4.14,0-7.25.48-9.33,1.41Z"/>
    <path class="cls-3" d="M674.85,897.26c12.97,11.85,19.49,29.07,19.49,51.73,0,14.58-3.18,27.35-9.55,38.26-6.34,10.92-15.53,19.36-27.51,25.4-11.98,6.04-26.29,9.04-42.88,9.04l-12.45-.22c-7.77-.25-13.4-.39-16.88-.39-13.79,0-24.1.2-30.93.61v-4.02c4.41-.26,7.66-.8,9.74-1.61,2.08-.79,3.48-2.34,4.23-4.63.73-2.27,1.1-5.93,1.1-11.02v-99.62c0-5.09-.37-8.78-1.1-11.06-.75-2.25-2.15-3.8-4.23-4.59-2.08-.83-5.33-1.35-9.74-1.64v-4.01c5.63.39,13.73.6,24.31.6h6.21l8.04-.2c10.98-.25,18.81-.39,23.51-.39,26.11,0,45.66,5.94,58.64,17.78ZM606.65,884.51c-2.06.93-3.52,2.61-4.31,5.02-.81,2.43-1.2,6.03-1.2,10.85v100.43c0,4.82.39,8.43,1.2,10.86.8,2.4,2.25,4.09,4.31,5.02,2.08.92,5.26,1.41,9.55,1.41,16.2,0,27.72-5.68,34.54-16.99,6.83-11.31,10.25-28.42,10.25-51.32s-3.53-39.73-10.55-50.51c-7.02-10.77-18.52-16.18-34.45-16.18-4.14,0-7.26.48-9.34,1.41Z"/>
    <path class="cls-3" d="M772.31,883.49c-4.55.29-7.83.81-9.83,1.64-2.01.79-3.38,2.34-4.14,4.59-.74,2.28-1.09,5.97-1.09,11.06v99.62c0,5.09.35,8.75,1.09,11.02.76,2.28,2.12,3.84,4.14,4.63,2,.81,5.28,1.35,9.83,1.61v4.02c-7.23-.41-17.35-.61-30.32-.61-14.32,0-24.91.2-31.74.61v-4.02c4.42-.26,7.66-.8,9.74-1.61,2.08-.79,3.49-2.34,4.22-4.63.75-2.27,1.12-5.93,1.12-11.02v-99.62c0-5.09-.37-8.78-1.12-11.06-.73-2.25-2.14-3.8-4.22-4.59-2.08-.83-5.32-1.35-9.74-1.64v-4.01c6.83.39,17.42.6,31.74.6,12.97,0,23.09-.2,30.32-.6v4.01Z"/>
    <path class="cls-3" d="M929.2,883.49c-4.42.68-7.67,1.83-9.74,3.44-2.09,1.58-3.5,4.14-4.21,7.62-.74,3.49-1.12,8.63-1.12,15.48v112.06l-4.82-.2-5.41.2-87.18-110.46v77.11c0,7.9.41,13.7,1.21,17.37.81,3.69,2.55,6.36,5.23,8.04,2.68,1.69,7.04,2.86,13.04,3.52v4.02c-5.21-.41-12.43-.61-21.67-.61-7.37,0-13.2.2-17.49.61v-4.02c4.42-.66,7.67-1.82,9.75-3.42,2.06-1.6,3.47-4.15,4.21-7.64.73-3.47,1.09-8.63,1.09-15.46v-90.37c0-5.09-.36-8.78-1.09-11.06-.74-2.25-2.16-3.8-4.21-4.59-2.08-.83-5.33-1.35-9.75-1.64v-4.01c4.29.39,10.12.6,17.49.6,6.69,0,12.45-.2,17.27-.6l77.73,95.81v-62.87c0-7.89-.41-13.69-1.22-17.36-.8-3.69-2.52-6.37-5.21-8.04-2.68-1.7-7.04-2.86-13.06-3.54v-4.01c5.23.39,12.45.6,21.7.6,7.5,0,13.32-.2,17.48-.6v4.01Z"/>
    <path class="cls-3" d="M1042.32,880.08c5.69,2.28,11.29,5.5,16.76,9.64,1.6,1.22,2.94,1.82,4.01,1.82,1.34,0,2.42-.96,3.22-2.93.81-1.92,1.4-4.96,1.8-9.12h4.62c-.53,9.11-.81,25.3-.81,48.59h-4.62c-1.06-9.08-2.64-16.44-4.71-22.07-2.08-5.63-5.52-10.39-10.34-14.28-3.22-3.05-7.17-5.48-11.86-7.22-4.69-1.75-9.49-2.61-14.45-2.61-9.37,0-17.17,3.18-23.41,9.53-6.23,6.37-10.82,14.77-13.75,25.21-2.95,10.46-4.42,21.91-4.42,34.35,0,46.33,12.86,69.49,38.55,69.49,5.9,0,10.66-1.35,14.26-4.01,1.75-1.21,2.98-2.62,3.72-4.22.73-1.61,1.1-3.69,1.1-6.24v-19.68c0-6.3-.53-10.88-1.61-13.75-1.07-2.86-2.98-4.85-5.73-5.94-2.74-1.05-7.04-1.72-12.94-1.98v-4.02c8.3.39,19.74.59,34.33.59,11.92,0,20.89-.19,26.92-.59v4.02c-2.68.26-4.62.8-5.82,1.59-1.21.82-2.03,2.34-2.52,4.63-.47,2.28-.71,5.95-.71,11.06v39.76h-4.01c-.13-2.81-.71-5.44-1.71-7.83-1-2.43-2.37-3.64-4.11-3.64-2.29,0-5.89,1.43-10.85,4.23-11.65,6.71-22.63,10.04-32.94,10.04-23.17,0-40.9-6.34-53.21-18.98-12.33-12.66-18.47-30.42-18.47-53.33,0-14.99,3.11-28.17,9.31-39.57,6.24-11.37,14.86-20.22,25.82-26.51,10.98-6.3,23.51-9.43,37.57-9.43,8.3,0,15.28,1.12,20.98,3.4Z"/>
    <path class="cls-2" d="M1323.16,1011.66c-3.63,4.15-7.51,7.13-11.66,8.93-4.14,1.79-9.16,2.71-15.05,2.71-7.78,0-13.89-1.65-18.38-4.91-4.48-3.3-7.4-8.87-8.75-16.78l-3.61-20.09c-1.75-9.78-3.85-16.98-6.33-21.58-2.48-4.63-6.61-6.96-12.35-6.96h-13.05v46.21c0,5.07.36,8.76,1.09,11.02.73,2.31,2.12,3.84,4.14,4.63,2,.81,5.28,1.35,9.83,1.63v4.01c-7.24-.39-17.35-.61-30.33-.61-14.32,0-24.89.22-31.72.61v-4.01c4.41-.27,7.66-.81,9.74-1.63,2.09-.79,3.47-2.32,4.21-4.63.73-2.26,1.12-5.95,1.12-11.02v-99.63c0-5.08-.39-8.76-1.12-11.06-.74-2.26-2.13-3.78-4.21-4.6-2.08-.81-5.33-1.35-9.74-1.6v-4.03c6.83.42,17,.62,30.52.62l22.31-.2c2.67-.14,5.75-.2,9.23-.2,18.47,0,32.37,3,41.68,9.03,9.31,6.04,13.95,14.67,13.95,25.91,0,9.52-3.48,17.88-10.44,25.11-6.96,7.22-18.47,11.78-34.54,13.65,12.06,1.08,21.03,3.69,26.91,7.82,5.9,4.17,9.71,10.4,11.45,18.7l4.63,20.67c1.07,5.36,2.3,9.11,3.71,11.25,1.4,2.14,3.38,3.22,5.92,3.22,1.61-.14,2.98-.54,4.12-1.21,1.14-.68,2.44-1.78,3.9-3.42l2.82,2.43ZM1238.5,883.72c-1.67.92-2.84,2.59-3.52,5.01-.67,2.4-.99,6.01-.99,10.85v49.42h8.63c10.99,0,18.52-2.93,22.61-8.74,4.08-5.84,6.11-14.03,6.11-24.61s-1.93-19.29-5.81-24.91c-3.89-5.61-10.26-8.43-19.08-8.43-3.62,0-6.27.48-7.94,1.41Z"/>
    <path class="cls-2" d="M1461.82,1020.48c-9.09-.39-24.43-.61-45.99-.61-29.2,0-51.01.22-65.47.61v-4.01c4.42-.27,7.67-.81,9.74-1.63,2.07-.79,3.49-2.32,4.23-4.63.73-2.26,1.1-5.95,1.1-11.02v-99.63c0-5.08-.37-8.76-1.1-11.06-.74-2.26-2.16-3.78-4.23-4.6-2.07-.81-5.31-1.35-9.74-1.6v-4.03c14.46.42,36.27.62,65.47.62,19.69,0,33.68-.2,41.98-.62-.94,11.13-1.4,21.03-1.4,29.75,0,5.87.2,10.41.59,13.65h-4.61c-2.01-14.34-5.63-24.38-10.85-30.14-5.21-5.76-12.58-8.64-22.1-8.64h-8.23c-4.15,0-7.16.35-9.05,1.02-1.87.68-3.14,1.96-3.81,3.91-.68,1.95-1,5.06-1,9.35v49.81h6.42c7.11,0,12.49-2.62,16.18-7.84,3.68-5.21,6.26-11.45,7.74-18.68h4.61c-.39,5.62-.59,11.91-.59,18.88v9.65c0,6.83.4,16.32,1.2,28.5h-4.63c-2.8-17.66-10.96-26.51-24.51-26.51h-6.42v50.63c0,4.28.32,7.38,1,9.33.67,1.95,1.94,3.25,3.81,3.91,1.88.69,4.9,1,9.05,1h9.84c9.5,0,17.17-3.23,22.99-9.73,5.83-6.49,9.94-17.51,12.36-33.02h4.62c-.42,4.4-.61,10.04-.61,16.85,0,12.33.47,22.5,1.4,30.54Z"/>
    <path class="cls-2" d="M1613.04,1013.25c2.28,2.02,4.48,3.1,6.63,3.23v4.01c-8.04-.39-18.22-.61-30.53-.61-13.65,0-23.84.22-30.53.61v-4.01c5.09-.27,8.7-.92,10.84-1.9,2.15-1.02,3.22-2.79,3.22-5.35,0-2.42-.81-5.62-2.42-9.64l-12.05-32.95h-43.79l-5.2,13.88c-3.75,9.64-5.63,17.06-5.63,22.29s1.48,8.41,4.5,10.35c3.02,1.93,7.46,3.04,13.36,3.31v4.01c-9.09-.39-17.41-.61-24.9-.61-6.16,0-11.24.22-15.28.61v-4.01c6.58-1.21,12.33-8.25,17.3-21.09l45.8-117.5c1.46.13,3.81.19,7.01.19s5.49-.06,6.84-.19l48.81,125.73c1.73,4.42,3.74,7.63,6.02,9.64ZM1556.81,962.64l-19.9-54.25-20.89,54.25h40.78Z"/>
    <path class="cls-2" d="M1705.6,882.31c-4.82.25-8.34.79-10.56,1.6-2.19.83-3.69,2.34-4.5,4.6-.81,2.3-1.21,5.98-1.21,11.06v102.04c0,4.28.33,7.38,1,9.33.66,1.95,1.84,3.25,3.52,3.91,1.69.69,4.39,1,8.14,1h9.83c9.11,0,16.98-4.07,23.59-12.24,6.63-8.17,10.96-19.02,12.96-32.54h4.61c-.41,4.54-.59,10.45-.59,17.67,0,12.87.47,23.45,1.4,31.73-9.09-.39-24.43-.61-45.99-.61-29.19,0-51.01.22-65.47.61v-4.01c4.42-.27,7.66-.81,9.74-1.63,2.07-.79,3.47-2.32,4.22-4.63.74-2.26,1.11-5.95,1.11-11.02v-99.63c0-5.08-.37-8.76-1.11-11.06-.75-2.26-2.15-3.78-4.22-4.6-2.08-.81-5.32-1.35-9.74-1.6v-4.03c6.83.42,17.41.62,31.73.62s24.18-.2,31.54-.62v4.03Z"/>
    <path class="cls-2" d="M1941.38,883.91c-2.02.83-3.4,2.34-4.14,4.6-.73,2.3-1.09,5.98-1.09,11.06v99.63c0,5.07.36,8.76,1.09,11.02.75,2.31,2.15,3.84,4.23,4.63,2.08.81,5.31,1.35,9.74,1.63v4.01c-7.36-.39-17.87-.61-31.53-.61s-24.89.22-31.72.61v-4.01c4.81-.27,8.33-.81,10.53-1.63,2.21-.79,3.71-2.32,4.52-4.63.81-2.26,1.2-5.95,1.2-11.02v-105.04l-48.4,126.53h-3.21l-54.23-129.33v96.18c0,7.9.39,13.7,1.2,17.39.8,3.69,2.55,6.35,5.21,8.04,2.69,1.67,7.02,2.85,13.06,3.52v4.01c-5.22-.39-12.45-.61-21.68-.61-7.37,0-13.19.22-17.47.61v-4.01c4.42-.67,7.65-1.83,9.73-3.43,2.07-1.61,3.49-4.15,4.21-7.62.74-3.48,1.12-8.66,1.12-15.48v-90.37c0-5.08-.38-8.76-1.12-11.06-.72-2.26-2.14-3.78-4.21-4.6-2.07-.81-5.31-1.35-9.73-1.6v-4.03c4.27.42,10.1.62,17.47.62,12.3,0,22.89-.2,31.73-.62l40.57,97.82,36.96-97.2h14.25c13.66,0,24.17-.2,31.53-.62v4.03c-4.55.25-7.83.79-9.82,1.6Z"/>
  </g>
</svg>