<?xml version="1.0" encoding="UTF-8"?>
<svg id="Layer_10" data-name="Layer 10" xmlns="http://www.w3.org/2000/svg" width="4267.18" height="553.78" xmlns:xlink="http://www.w3.org/1999/xlink" viewBox="0 0 4267.18 553.78">
  <defs>
    <style>
      .cls-1 {
        fill: url(#linear-gradient);
      }

      .cls-1, .cls-2, .cls-3 {
        stroke-width: 0px;
      }

      .cls-2 {
        fill: #7876b7;
      }

      .cls-3 {
        fill: #5fb4e1;
      }
    </style>
    <linearGradient id="linear-gradient" x1="24.94" y1="278.13" x2="1187.61" y2="278.13" gradientUnits="userSpaceOnUse">
      <stop offset=".59" stop-color="#61b3df"/>
      <stop offset=".63" stop-color="#7975b5"/>
    </linearGradient>
  </defs>
  <g>
    <path class="cls-3" d="M1659.96,170.4v6.07c-5.07,2.05-10.01,5.96-14.76,11.74-4.77,5.8-8.79,13.95-12.02,24.47l-53.58,173.78c-2.23-.22-5.76-.31-10.62-.31s-8.42.09-10.66.31l-44.71-135.72-45.05,135.72c-2.22-.22-5.79-.31-10.65-.31s-8.41.09-10.64.31l-68.16-190.51c-2.44-6.67-5.37-11.56-8.82-14.62-3.47-2.99-6.89-4.64-10.36-4.87v-6.07c12.16.6,27.29.91,45.35.91,17.05,0,29.53-.31,37.42-.91v6.07c-7.1,1.03-10.64,5-10.64,11.92,0,3.24.91,7.79,2.75,13.66l44.4,128.73,30.72-90.69-15.51-47.17c-2.02-5.89-4.43-9.96-7.13-12.32-2.76-2.32-5.95-3.7-9.59-4.13v-6.07c11.36.6,25.85.91,43.51.91,19.86,0,34.48-.31,43.81-.91v6.07c-7.3.24-12.57,1.09-15.82,2.63-3.25,1.5-4.88,4.38-4.88,8.66,0,3.66,1.03,8.42,3.06,14.29l41.69,127.19,28.91-91.86c4.66-15.24,6.97-27.01,6.97-35.33s-2.16-15.05-6.52-19.02c-4.37-3.93-10.91-6.12-19.61-6.56v-6.07c13.78.6,26.35.91,37.73.91,9.52,0,17.33-.31,23.41-.91Z"/>
    <path class="cls-3" d="M1857.71,385.85c-13.8-.62-37.02-.92-69.69-.92-44.22,0-77.28.31-99.19.92v-6.09c6.68-.4,11.6-1.21,14.74-2.44,3.17-1.2,5.3-3.55,6.42-7.01,1.12-3.44,1.65-8.98,1.65-16.7v-150.94c0-7.72-.52-13.3-1.65-16.76-1.12-3.41-3.25-5.76-6.42-6.96-3.13-1.25-8.05-2.05-14.74-2.48v-6.07c21.91.6,54.97.91,99.19.91,29.84,0,51.02-.31,63.6-.91-1.43,16.85-2.14,31.85-2.14,45.04,0,8.95.32,15.82.9,20.69h-6.98c-3.04-21.7-8.52-36.92-16.44-45.63-7.89-8.73-19.06-13.08-33.45-13.08h-12.49c-6.29,0-10.87.51-13.69,1.54-2.85.98-4.78,2.97-5.78,5.91-1.01,2.95-1.52,7.68-1.52,14.15v75.49h9.73c10.75,0,18.9-3.97,24.52-11.88,5.55-7.9,9.46-17.34,11.69-28.32h7c-.61,8.53-.91,18.08-.91,28.62v14.62c0,10.31.61,24.75,1.82,43.21h-7c-4.26-26.79-16.63-40.18-37.13-40.18h-9.73v76.68c0,6.52.51,11.21,1.52,14.15,1,2.95,2.93,4.91,5.78,5.92,2.82,1.03,7.4,1.54,13.69,1.54h14.91c14.42,0,26.03-4.95,34.84-14.76,8.85-9.84,15.08-26.52,18.72-50.05h6.98c-.61,6.7-.91,15.2-.91,25.54,0,18.68.7,34.09,2.15,46.27Z"/>
    <path class="cls-3" d="M2070.14,197.34c19.66,17.95,29.49,44.04,29.49,78.37,0,22.08-4.8,41.43-14.46,57.97-9.65,16.54-23.52,29.33-41.68,38.48-18.15,9.15-39.83,13.7-64.97,13.7l-18.86-.33c-11.77-.38-20.3-.6-25.57-.6-20.9,0-36.51.31-46.86.92v-6.09c6.7-.4,11.6-1.21,14.76-2.44,3.13-1.2,5.29-3.55,6.4-7.01,1.1-3.44,1.67-8.98,1.67-16.7v-150.94c0-7.72-.56-13.3-1.67-16.76-1.11-3.41-3.27-5.76-6.4-6.96-3.15-1.25-8.05-2.05-14.76-2.48v-6.07c8.54.6,20.8.91,36.81.91h9.44l12.16-.31c16.64-.38,28.5-.6,35.62-.6,39.56,0,69.18,9,88.87,26.94ZM1966.82,178.01c-3.15,1.41-5.33,3.95-6.55,7.61-1.2,3.68-1.8,9.13-1.8,16.43v152.15c0,7.3.6,12.77,1.8,16.45,1.22,3.64,3.4,6.2,6.55,7.61,3.15,1.39,7.94,2.14,14.46,2.14,24.54,0,41.99-8.6,52.36-25.74,10.33-17.14,15.51-43.06,15.51-77.75s-5.33-60.2-15.98-76.52c-10.64-16.32-28.06-24.51-52.2-24.51-6.27,0-10.99.72-14.14,2.14Z"/>
    <path class="cls-3" d="M2308.43,197.34c19.66,17.95,29.53,44.04,29.53,78.37,0,22.08-4.82,41.43-14.47,57.97-9.61,16.54-23.52,29.33-41.67,38.48-18.15,9.15-39.84,13.7-64.97,13.7l-18.86-.33c-11.77-.38-20.3-.6-25.57-.6-20.9,0-36.51.31-46.86.92v-6.09c6.68-.4,11.6-1.21,14.76-2.44,3.15-1.2,5.27-3.55,6.4-7.01,1.11-3.44,1.67-8.98,1.67-16.7v-150.94c0-7.72-.56-13.3-1.67-16.76-1.13-3.41-3.25-5.76-6.4-6.96-3.15-1.25-8.07-2.05-14.76-2.48v-6.07c8.52.6,20.8.91,36.83.91h9.4l12.18-.31c16.64-.38,28.51-.6,35.62-.6,39.56,0,69.17,9,88.85,26.94ZM2205.11,178.01c-3.12,1.41-5.33,3.95-6.53,7.61-1.22,3.68-1.82,9.13-1.82,16.43v152.15c0,7.3.6,12.77,1.82,16.45,1.2,3.64,3.42,6.2,6.53,7.61,3.15,1.39,7.96,2.14,14.47,2.14,24.54,0,41.99-8.6,52.34-25.74,10.34-17.14,15.52-43.06,15.52-77.75s-5.35-60.2-15.98-76.52c-10.64-16.32-28.06-24.51-52.2-24.51-6.27,0-11.01.72-14.16,2.14Z"/>
    <path class="cls-3" d="M2456.1,176.47c-6.89.43-11.87,1.23-14.89,2.48-3.05,1.2-5.12,3.55-6.27,6.96-1.12,3.46-1.65,9.04-1.65,16.76v150.94c0,7.72.52,13.26,1.65,16.7,1.15,3.46,3.22,5.82,6.27,7.01,3.03,1.23,8,2.05,14.89,2.44v6.09c-10.96-.62-26.29-.92-45.94-.92-21.69,0-37.74.31-48.09.92v-6.09c6.7-.4,11.6-1.21,14.76-2.44,3.15-1.2,5.29-3.55,6.39-7.01,1.13-3.44,1.69-8.98,1.69-16.7v-150.94c0-7.72-.56-13.3-1.69-16.76-1.1-3.41-3.24-5.76-6.39-6.96-3.15-1.25-8.05-2.05-14.76-2.48v-6.07c10.34.6,26.39.91,48.09.91,19.66,0,34.98-.31,45.94-.91v6.07Z"/>
    <path class="cls-3" d="M2693.8,176.47c-6.7,1.03-11.62,2.77-14.76,5.22-3.16,2.39-5.3,6.27-6.39,11.54-1.12,5.29-1.69,13.08-1.69,23.46v169.78l-7.3-.31-8.2.31-132.09-167.35v116.83c0,11.97.63,20.76,1.83,26.32,1.23,5.6,3.86,9.64,7.92,12.17,4.06,2.55,10.66,4.33,19.76,5.33v6.09c-7.9-.62-18.84-.92-32.83-.92-11.17,0-20,.31-26.49.92v-6.09c6.7-1,11.62-2.75,14.77-5.18,3.12-2.43,5.26-6.29,6.39-11.58,1.1-5.25,1.65-13.08,1.65-23.42v-136.92c0-7.72-.54-13.3-1.65-16.76-1.12-3.41-3.27-5.76-6.39-6.96-3.15-1.25-8.07-2.05-14.77-2.48v-6.07c6.49.6,15.33.91,26.49.91,10.14,0,18.87-.31,26.17-.91l117.76,145.16v-95.25c0-11.96-.62-20.74-1.85-26.3-1.21-5.6-3.82-9.66-7.9-12.17-4.06-2.57-10.66-4.33-19.79-5.36v-6.07c7.93.6,18.87.91,32.87.91,11.36,0,20.18-.31,26.48-.91v6.07Z"/>
    <path class="cls-3" d="M2865.19,171.31c8.61,3.46,17.1,8.33,25.4,14.6,2.42,1.85,4.45,2.75,6.08,2.75,2.03,0,3.67-1.45,4.88-4.44,1.22-2.92,2.12-7.52,2.73-13.82h7c-.81,13.8-1.22,38.33-1.22,73.62h-7c-1.61-13.75-3.99-24.91-7.14-33.44-3.15-8.53-8.37-15.74-15.67-21.63-4.88-4.62-10.87-8.3-17.96-10.94-7.1-2.65-14.38-3.95-21.89-3.95-14.19,0-26.01,4.82-35.46,14.44-9.44,9.66-16.39,22.37-20.83,38.19-4.47,15.85-6.7,33.19-6.7,52.05,0,70.2,19.48,105.29,58.41,105.29,8.94,0,16.15-2.05,21.61-6.07,2.65-1.83,4.52-3.97,5.63-6.39,1.11-2.45,1.67-5.6,1.67-9.46v-29.82c0-9.55-.81-16.48-2.44-20.83-1.62-4.33-4.51-7.36-8.68-9-4.15-1.59-10.66-2.61-19.6-3.01v-6.09c12.58.6,29.91.89,52.02.89,18.06,0,31.66-.29,40.78-.89v6.09c-4.06.4-7,1.21-8.82,2.41-1.84,1.25-3.08,3.55-3.81,7.01-.72,3.46-1.07,9.02-1.07,16.76v60.23h-6.07c-.2-4.26-1.07-8.24-2.59-11.87-1.51-3.68-3.6-5.51-6.23-5.51-3.47,0-8.93,2.17-16.44,6.41-17.64,10.16-34.28,15.22-49.9,15.22-35.1,0-61.96-9.6-80.62-28.75-18.68-19.18-27.99-46.09-27.99-80.8,0-22.72,4.71-42.68,14.11-59.94,9.45-17.23,22.51-30.63,39.12-40.16,16.63-9.55,35.62-14.29,56.92-14.29,12.58,0,23.14,1.7,31.78,5.14Z"/>
    <path class="cls-2" d="M3290.68,370.65c-5.5,6.29-11.38,10.8-17.66,13.53-6.27,2.72-13.88,4.11-22.81,4.11-11.79,0-21.04-2.5-27.84-7.45-6.79-5-11.2-13.44-13.25-25.42l-5.46-30.43c-2.64-14.82-5.83-25.72-9.59-32.7-3.75-7.01-10.01-10.54-18.71-10.54h-19.77v70.02c0,7.68.55,13.28,1.66,16.7,1.11,3.5,3.21,5.82,6.27,7.01,3.03,1.23,8,2.05,14.89,2.46v6.07c-10.97-.6-26.29-.92-45.96-.92-21.7,0-37.72.33-48.06.92v-6.07c6.68-.42,11.6-1.23,14.76-2.46,3.16-1.2,5.26-3.51,6.39-7.01,1.1-3.42,1.69-9.02,1.69-16.7v-150.94c0-7.7-.59-13.28-1.69-16.76-1.12-3.42-3.23-5.72-6.39-6.97-3.15-1.23-8.07-2.05-14.76-2.43v-6.1c10.34.63,25.76.94,46.24.94l33.8-.31c4.05-.22,8.7-.31,13.99-.31,27.99,0,49.05,4.55,63.14,13.68,14.1,9.15,21.14,22.23,21.14,39.26,0,14.42-5.27,27.08-15.82,38.04-10.55,10.94-27.99,17.84-52.34,20.69,18.28,1.63,31.86,5.6,40.77,11.85,8.94,6.32,14.72,15.76,17.35,28.33l7.02,31.32c1.62,8.12,3.48,13.8,5.62,17.05,2.12,3.24,5.13,4.87,8.98,4.87,2.44-.22,4.52-.82,6.25-1.83,1.73-1.03,3.7-2.7,5.91-5.18l4.27,3.68ZM3162.41,176.81c-2.54,1.39-4.3,3.93-5.34,7.59-1.01,3.64-1.5,9.11-1.5,16.43v74.87h13.07c16.65,0,28.06-4.44,34.26-13.24,6.18-8.84,9.26-21.25,9.26-37.28s-2.93-29.22-8.8-37.73c-5.9-8.5-15.54-12.77-28.91-12.77-5.48,0-9.49.72-12.03,2.14Z"/>
    <path class="cls-2" d="M3500.76,384.02c-13.78-.6-37.02-.92-69.68-.92-44.25,0-77.28.33-99.19.92v-6.07c6.7-.42,11.62-1.23,14.76-2.46,3.13-1.2,5.28-3.51,6.4-7.01,1.1-3.42,1.67-9.02,1.67-16.7v-150.94c0-7.7-.56-13.28-1.67-16.76-1.12-3.42-3.27-5.72-6.4-6.97-3.13-1.23-8.05-2.05-14.76-2.43v-6.1c21.91.63,54.95.94,99.19.94,29.84,0,51.02-.31,63.6-.94-1.43,16.87-2.12,31.87-2.12,45.07,0,8.89.3,15.78.9,20.69h-6.98c-3.04-21.72-8.52-36.94-16.44-45.67-7.89-8.73-19.06-13.1-33.48-13.1h-12.46c-6.29,0-10.85.53-13.7,1.54-2.84,1.03-4.76,2.97-5.78,5.92-1.03,2.95-1.52,7.66-1.52,14.17v75.47h9.73c10.77,0,18.92-3.97,24.51-11.88,5.58-7.9,9.48-17.35,11.72-28.3h6.98c-.59,8.51-.89,18.04-.89,28.6v14.62c0,10.34.61,24.73,1.82,43.19h-7.02c-4.24-26.76-16.61-40.16-37.13-40.16h-9.73v76.7c0,6.49.49,11.18,1.52,14.13,1.01,2.95,2.94,4.93,5.78,5.92,2.85,1.05,7.42,1.52,13.7,1.52h14.91c14.39,0,26.01-4.89,34.84-14.75,8.83-9.84,15.06-26.52,18.72-50.04h7c-.64,6.67-.92,15.22-.92,25.52,0,18.68.72,34.09,2.12,46.27Z"/>
    <path class="cls-2" d="M3729.86,373.06c3.46,3.06,6.79,4.69,10.05,4.89v6.07c-12.18-.6-27.6-.92-46.26-.92-20.69,0-36.11.33-46.25.92v-6.07c7.71-.42,13.18-1.39,16.42-2.88,3.25-1.54,4.88-4.22,4.88-8.1,0-3.66-1.22-8.51-3.66-14.6l-18.25-49.93h-66.34l-7.88,21.03c-5.69,14.6-8.52,25.85-8.52,33.77s2.25,12.74,6.81,15.69c4.58,2.92,11.3,4.6,20.23,5.02v6.07c-13.78-.6-26.38-.92-37.73-.92-9.33,0-17.03.33-23.15.92v-6.07c9.97-1.83,18.68-12.5,26.2-31.96l69.38-178.02c2.22.2,5.77.29,10.62.29s8.32-.09,10.36-.29l73.95,190.49c2.63,6.7,5.67,11.56,9.12,14.6ZM3644.67,296.4l-30.14-82.19-31.65,82.19h61.79Z"/>
    <path class="cls-2" d="M3870.1,174.68c-7.3.38-12.64,1.2-16,2.43-3.32,1.25-5.59,3.55-6.81,6.97-1.22,3.48-1.84,9.06-1.84,16.76v154.6c0,6.49.51,11.18,1.52,14.13,1.01,2.95,2.79,4.93,5.33,5.92,2.55,1.05,6.65,1.52,12.34,1.52h14.9c13.8,0,25.72-6.16,35.74-18.55,10.05-12.37,16.6-28.82,19.64-49.29h6.98c-.62,6.88-.9,15.83-.9,26.77,0,19.49.71,35.53,2.12,48.08-13.78-.6-37.02-.92-69.68-.92-44.23,0-77.29.33-99.19.92v-6.07c6.7-.42,11.6-1.23,14.76-2.46,3.13-1.2,5.25-3.51,6.39-7.01,1.11-3.42,1.68-9.02,1.68-16.7v-150.94c0-7.7-.56-13.28-1.68-16.76-1.14-3.42-3.26-5.72-6.39-6.97-3.15-1.23-8.05-2.05-14.76-2.43v-6.1c10.34.63,26.38.94,48.07.94s36.63-.31,47.78-.94v6.1Z"/>
    <path class="cls-2" d="M4227.32,177.1c-3.06,1.25-5.14,3.55-6.28,6.97-1.11,3.48-1.65,9.06-1.65,16.76v150.94c0,7.68.54,13.28,1.65,16.7,1.13,3.5,3.25,5.82,6.4,7.01,3.15,1.23,8.05,2.05,14.76,2.46v6.07c-11.15-.6-27.07-.92-47.77-.92s-37.72.33-48.06.92v-6.07c7.28-.42,12.62-1.23,15.96-2.46,3.35-1.2,5.62-3.51,6.85-7.01,1.22-3.42,1.82-9.02,1.82-16.7v-159.15l-73.32,191.7h-4.86l-82.16-195.94v145.72c0,11.97.6,20.76,1.82,26.34,1.21,5.6,3.87,9.62,7.9,12.17,4.08,2.54,10.64,4.31,19.79,5.33v6.07c-7.91-.6-18.87-.92-32.85-.92-11.17,0-19.99.33-26.47.92v-6.07c6.69-1.01,11.59-2.77,14.74-5.2,3.13-2.45,5.29-6.29,6.38-11.54,1.12-5.27,1.69-13.12,1.69-23.46v-136.92c0-7.7-.57-13.28-1.69-16.76-1.09-3.42-3.24-5.72-6.38-6.97-3.14-1.23-8.04-2.05-14.74-2.43v-6.1c6.48.63,15.3.94,26.47.94,18.64,0,34.67-.31,48.07-.94l61.47,148.2,56-147.26h21.59c20.7,0,36.62-.31,47.77-.94v6.1c-6.89.38-11.87,1.2-14.88,2.43Z"/>
  </g>
  <g>
    <path class="cls-1" d="M1177.54,487.78c-5.28,5.72-9.97,9.82-14.03,12.2-4.08,2.42-9.02,3.87-14.78,4.32-9.15,0-16.21-3.82-21.28-11.51-5.03-7.67-9.46-21.13-13.32-40.35l-16.55-74.16c-6.25-29.79-19.92-52.11-41.07-67-21.14-14.9-53.29-24.23-96.53-28.11,57.64-6.72,98.94-23.05,123.91-48.98,24.96-25.94,37.47-55.96,37.47-90.06,0-40.32-16.69-71.3-50.07-92.94-33.4-21.58-83.22-32.4-149.49-32.4-12.5,0-23.53.26-33.14.73l-79.97.72c-44.18,0-168.61-.61-208.97-1.83-3.12-.14-6.13-.2-9.31-.34v14.4c20.66.96,36.13,6.14,46.47,15.51,10.29,9.35,15.48,24.4,15.48,45.03s-5.5,47.53-16.56,83.55l-68.43,217.54-98.71-301.09c-4.8-13.94-7.2-25.25-7.2-33.88,0-10.08,3.86-16.93,11.53-20.52,7.69-3.62,20.17-5.65,37.47-6.14v-14.4c-22.11,1.45-56.71,2.17-103.76,2.17-41.77,0-76.12-.72-103-2.17v14.4c8.64.96,16.2,4.21,22.68,9.73,6.49,5.53,12.13,15.27,16.93,29.19l36.74,111.66-72.77,214.66L202.15,93.01c-4.31-13.94-6.49-24.75-6.49-32.44,0-16.32,8.39-25.67,25.21-28.09v-14.4c-18.72,1.45-48.24,2.17-88.59,2.17-42.76,0-78.52-.72-107.34-2.17v14.4c8.19.49,16.34,4.33,24.5,11.5,8.15,7.22,15.13,18.75,20.89,34.61l161.36,450.92c5.28-.45,13.69-.69,25.21-.69s19.93.24,25.23.69l106.62-321.24,105.91,321.24c5.27-.45,13.66-.69,25.22-.69s19.9.24,25.21.69l126.78-411.28c7.67-24.98,17.16-44.29,28.45-58,5.15-6.26,10.38-11.54,15.69-15.94,5.59-4.18,10.97-6.26,14.82-6.45,1.3-.06,2.42.09,3.32.45,7.44,2.87,12.48,8.38,15.15,16.57,2.65,8.15,3.94,21.36,3.94,39.61v191.61h161.39c20.62,0,35.41,8.29,44.29,24.84,8.86,16.57,16.45,42.4,22.67,77.45l12.97,71.99c4.82,28.36,15.24,48.42,31.37,60.17,16.07,11.77,38.02,17.66,65.9,17.66,21.12,0,39.13-3.24,54.03-9.74,14.85-6.5,28.8-17.15,41.76-32.04l-10.08-8.63ZM898.76,271.65h-30.98V94.45c0-17.31,1.21-30.26,3.58-38.92,2.43-8.66,6.62-14.63,12.63-18,5.99-3.37,15.48-5.05,28.44-5.05,31.71,0,54.53,10.09,68.47,30.25,13.91,20.2,20.89,49.96,20.89,89.35s-7.35,67.36-21.98,88.25c-14.65,20.9-41.66,31.33-81.04,31.33Z"/>
    <path class="cls-2" d="M900.97,332.82c-28.38-28.36-74.32-28.36-102.69,0-28.37-28.36-74.32-28.36-102.68,0-28.32,28.38-28.35,74.32,0,102.7l102.72,102.66,102.65-102.66c15.86-15.87,22.85-37.28,20.97-58-1.5-16.32-8.49-32.2-20.97-44.7Z"/>
  </g>
</svg>